<svg id="Capa_1" enable-background="new 0 0 511.86 511.86" height="512" viewBox="0 0 511.86 511.86" width="512" xmlns="http://www.w3.org/2000/svg"><g><path d="m486.249 179.822c-5.861-5.861-15.35-5.861-21.213 0-5.852 5.852-15.361 5.852-21.213 0s-5.852-15.361 0-21.213l-84.853 84.853c5.852-5.852 15.361-5.852 21.213 0s5.852 15.361 0 21.213c-5.863 5.863-5.863 15.352 0 21.215l21.213 21.213c5.863 5.863 15.352 5.863 21.215 0l84.853-84.853c5.861-5.863 5.861-15.352 0-21.213z"/><path d="m284.725 148.003 63.638 63.638 74.247-74.246c5.861-5.863 5.861-15.352 0-21.213l-42.427-42.427c-56.191-56.191-146.545-86.799-212.131-21.213-4.288 4.288-5.583 10.741-3.252 16.344 2.276 5.541 7.734 9.261 13.857 9.261 77.168 0 124.938 46.3 125.374 46.734 1.046 1.047 1.046 2.767 0 3.812z"/><path d="m13.159 483.206c17.547 17.547 46.093 17.547 63.64 0l250.352-250.352-63.64-63.638-250.352 250.352c-17.545 17.545-17.545 46.093 0 63.638z"/></g></svg>